<svg id="Layer_1" data-name="Layer 1" xmlns="http://www.w3.org/2000/svg" xmlns:xlink="http://www.w3.org/1999/xlink" viewBox="0 0 383.56 383.56"><defs><style>.cls-1{fill:url(#linear-gradient);}</style><linearGradient id="linear-gradient" x1="269.39" y1="135.39" x2="638.32" y2="469.43" gradientUnits="userSpaceOnUse"><stop offset="0" stop-color="#39b54a"/><stop offset="1" stop-color="#006837"/></linearGradient></defs><path class="cls-1" d="M574.8,296.11,520,334.46H462.34a15.67,15.67,0,1,1,0-8h55.14l54.8-38.35h67.51v-43.8a15,15,0,0,0-15-15h-109v-109a15,15,0,0,0-15-15H395.21a15,15,0,0,0-15,15v109h-109a15,15,0,0,0-15,15v53.83h64.15l54.8-38.35h57.66a15.67,15.67,0,1,1,0,8H377.7l-54.8,38.35H256.23v43.78a15,15,0,0,0,15,15h109v109a15,15,0,0,0,15,15H500.82a15,15,0,0,0,15-15v-109h109a15,15,0,0,0,15-15V296.11Z" transform="translate(-256.23 -105.34)"/></svg>